<?xml version="1.0" encoding="UTF-8" standalone="no"?>
<svg width="821px" height="219px" viewBox="0 0 821 219" version="1.1" xmlns="http://www.w3.org/2000/svg" xmlns:xlink="http://www.w3.org/1999/xlink" xmlns:sketch="http://www.bohemiancoding.com/sketch/ns">
    <!-- Generator: Sketch 3.2.2 (9983) - http://www.bohemiancoding.com/sketch -->
    <title>adamWinickLogo</title>
    <desc>Created with Sketch.</desc>
    <defs></defs>
    <g id="Page-1" stroke="none" stroke-width="1" fill="none" fill-rule="evenodd" sketch:type="MSPage">
        <g id="adamWinickLogo" sketch:type="MSLayerGroup">
            <path d="M210.146,192.882 C193.338,176.078 184.941,155.536 184.941,131.232 C184.941,107.165 193.457,86.613 210.484,69.574 C227.288,52.545 247.836,44.029 272.14,44.029 L315.73,44.029 C327.538,44.029 337.755,39.837 346.387,31.43 C355.016,22.805 359.332,12.481 359.332,0.443 L359.332,131.232 C359.332,155.537 350.7,176.187 333.444,193.226 C316.64,210.03 296.201,218.427 272.139,218.427 C247.836,218.427 227.173,209.912 210.146,192.882 L210.146,192.882 Z" id="Shape" fill="#3399FF" sketch:type="MSShapeGroup"></path>
            <path d="M428.977,117.029 C428.977,90.499 436.27,65.679 448.927,44.429 C428.46,46.277 410.865,54.658 396.15,69.574 C379.121,86.613 370.607,107.165 370.607,131.232 C370.607,155.537 379.002,176.079 395.806,192.882 C412.839,209.911 433.497,218.427 457.8,218.427 L471.568,218.427 C445.295,192.638 428.977,156.746 428.977,117.029 L428.977,117.029 Z" id="Shape" fill="#3399FF" sketch:type="MSShapeGroup"></path>
            <path d="M544.992,131.232 C544.992,107.165 536.479,86.729 519.45,69.918 C502.415,52.672 481.863,44.029 457.8,44.029 C454.783,44.029 451.831,44.166 448.927,44.429 C436.27,65.678 428.977,90.498 428.977,117.029 C428.977,156.746 445.295,192.638 471.568,218.428 L544.993,218.428 L544.993,131.232 L544.992,131.232 Z" id="Shape" fill="#003366" sketch:type="MSShapeGroup"></path>
            <path d="M795.368,69.918 C778.339,52.672 757.794,44.029 733.726,44.029 L646.532,44.029 C645.34,44.029 644.199,44.148 643.026,44.192 C647.686,50.887 651.784,57.998 655.253,65.461 C694.199,82.989 721.335,122.111 721.335,167.603 C721.335,183.617 717.948,198.834 711.886,212.613 C715.011,210.772 717.986,208.544 720.784,205.827 C729.406,197.205 733.726,186.868 733.726,174.83 C733.726,186.868 737.921,197.205 746.326,205.827 C754.96,214.233 765.285,218.429 777.315,218.429 L820.921,218.429 L820.921,131.234 C820.922,107.165 812.406,86.729 795.368,69.918 L795.368,69.918 Z" id="Shape" fill="#3399FF" sketch:type="MSShapeGroup"></path>
            <path d="M609.347,55.616 C625.716,55.616 641.241,59.148 655.253,65.461 C651.784,57.998 647.687,50.888 643.026,44.192 C627.989,44.718 614.428,48.604 602.355,55.85 C604.669,55.705 606.996,55.616 609.347,55.616 L609.347,55.616 Z" id="Shape" fill="#0066CC" sketch:type="MSShapeGroup"></path>
            <path d="M655.253,65.461 C663.701,83.642 668.446,103.887 668.446,125.254 C668.446,150.164 662.019,173.562 650.758,193.916 C652.808,198.191 655.571,202.167 659.132,205.826 C667.76,214.232 678.09,218.428 690.129,218.428 C698.108,218.428 705.355,216.461 711.886,212.612 C717.948,198.834 721.335,183.616 721.335,167.602 C721.335,122.111 694.199,82.989 655.253,65.461 L655.253,65.461 Z" id="Shape" fill="#0066CC" sketch:type="MSShapeGroup"></path>
            <path d="M602.355,55.85 C596.149,59.574 590.296,64.084 584.878,69.574 C567.853,86.613 559.333,107.165 559.333,131.232 L559.333,218.427 L602.934,218.427 C614.738,218.427 624.955,214.232 633.587,205.825 C642.211,197.203 646.532,186.866 646.532,174.828 C646.532,181.767 647.972,188.116 650.758,193.915 C662.02,173.56 668.446,150.163 668.446,125.253 C668.446,103.886 663.701,83.641 655.253,65.46 C641.24,59.148 625.716,55.615 609.347,55.615 C606.996,55.616 604.669,55.705 602.355,55.85 L602.355,55.85 Z" id="Shape" fill="#003366" sketch:type="MSShapeGroup"></path>
            <path d="M174.57,131.432 C174.57,107.365 166.049,86.929 149.026,70.117 C132.632,53.513 112.938,44.971 90.025,44.356 C93.442,50.814 96.415,57.544 98.898,64.51 C135.082,90.66 158.65,133.19 158.65,181.242 C158.65,194.178 156.915,206.695 153.718,218.625 L174.571,218.625 L174.571,131.432 L174.57,131.432 Z" id="Shape" fill="#3399FF" sketch:type="MSShapeGroup"></path>
            <path d="M66.062,46.749 C77.827,51.251 88.848,57.246 98.897,64.512 C96.414,57.546 93.441,50.816 90.024,44.358 C89.131,44.332 88.272,44.23 87.371,44.23 C79.898,44.229 72.823,45.135 66.062,46.749 L66.062,46.749 Z" id="Shape" fill="#0066CC" sketch:type="MSShapeGroup"></path>
            <path d="M98.897,64.511 C104.652,80.661 107.816,98.043 107.816,116.169 C107.816,154.784 93.553,190.048 70.05,217.058 C75.604,218.091 81.374,218.626 87.37,218.626 L153.716,218.626 C156.913,206.696 158.648,194.179 158.648,181.243 C158.65,133.191 135.081,90.662 98.897,64.511 L98.897,64.511 Z" id="Shape" fill="#0066CC" sketch:type="MSShapeGroup"></path>
            <path d="M25.73,69.774 C8.691,86.812 0.176,107.365 0.176,131.432 C0.176,155.736 8.577,176.279 25.386,193.082 C38.213,205.908 53.105,213.888 70.05,217.058 C93.553,190.048 107.816,154.785 107.816,116.169 C107.816,98.043 104.652,80.661 98.897,64.511 C88.848,57.245 77.827,51.25 66.062,46.748 C50.831,50.371 37.361,57.98 25.73,69.774 L25.73,69.774 Z" id="Shape" fill="#003366" sketch:type="MSShapeGroup"></path>
        </g>
    </g>
</svg>